<?xml version="1.0" encoding="UTF-8"?>
<svg width="64" height="64" viewBox="0 0 64 64" fill="none" xmlns="http://www.w3.org/2000/svg">
    <circle cx="32" cy="32" r="28" stroke="#0984E3" stroke-width="2"/>
    <path d="M32 18C26.4772 18 22 22.4772 22 28C22 31.3 23.6 34.2 26 35.8V38C26 39.1 26.9 40 28 40H36C37.1 40 38 39.1 38 38V35.8C40.4 34.2 42 31.3 42 28C42 22.4772 37.5228 18 32 18ZM35 37H29V36H35V37ZM36.5 32.8L35.5 33.4V34H28.5V33.4L27.5 32.8C25.9 31.8 25 30 25 28C25 24.1 28.1 21 32 21C35.9 21 39 24.1 39 28C39 30 38.1 31.8 36.5 32.8Z" fill="#00B894"/>
    <path d="M30 42H34V44H30V42Z" fill="#00B894"/>
</svg> 