<?xml version="1.0" encoding="UTF-8"?>
<svg width="64" height="64" viewBox="0 0 64 64" fill="none" xmlns="http://www.w3.org/2000/svg">
    <circle cx="32" cy="32" r="28" stroke="#0984E3" stroke-width="2"/>
    <path d="M42 22.4L41.6 20.8C41.2 19.2 39.6 18 38 18H26C24.4 18 22.8 19.2 22.4 20.8L22 22.4C19.6 22.8 18 24.8 18 27.2V40C18 42.8 20.4 45.2 23.2 45.2H40.8C43.6 45.2 46 42.8 46 40V27.2C46 24.8 44.4 22.8 42 22.4ZM26 22.4H38L38.4 20.8H25.6L26 22.4ZM32 40.8L26.4 35.2L29.2 32.4L32 35.2L38.8 28.4L41.6 31.2L32 40.8Z" fill="#00B894"/>
</svg> 