<?xml version="1.0" encoding="UTF-8"?>
<svg width="64" height="64" viewBox="0 0 64 64" fill="none" xmlns="http://www.w3.org/2000/svg">
    <circle cx="32" cy="32" r="28" stroke="#0984E3" stroke-width="2"/>
    <path d="M32 14C22.06 14 14 22.06 14 32C14 41.94 22.06 50 32 50C41.94 50 50 41.94 50 32C50 22.06 41.94 14 32 14ZM32 18C39.72 18 46 24.28 46 32C46 39.72 39.72 46 32 46C24.28 46 18 39.72 18 32C18 24.28 24.28 18 32 18ZM32 22C27.58 22 24 25.58 24 30H28C28 27.8 29.8 26 32 26C34.2 26 36 27.8 36 30C36 31.36 35.32 32.54 34.24 33.18L30.76 35.18C29.68 35.82 29 37 29 38.36V40H33V38.36L36.48 36.36C38.64 35.08 40 32.7 40 30C40 25.58 36.42 22 32 22ZM29 42V46H33V42H29Z" fill="#00B894"/>
</svg> 