<?xml version="1.0" encoding="UTF-8"?>
<svg width="64" height="64" viewBox="0 0 64 64" fill="none" xmlns="http://www.w3.org/2000/svg">
    <circle cx="32" cy="32" r="28" stroke="#0984E3" stroke-width="2"/>
    <path d="M48 26H42V20H16C14.9 20 14 20.9 14 22V38H16C16 40.21 17.79 42 20 42C22.21 42 24 40.21 24 38H40C40 40.21 41.79 42 44 42C46.21 42 48 40.21 48 38H50V32L48 26ZM20 40C18.9 40 18 39.1 18 38C18 36.9 18.9 36 20 36C21.1 36 22 36.9 22 38C22 39.1 21.1 40 20 40ZM46 28L47.22 32H42V28H46ZM44 40C42.9 40 42 39.1 42 38C42 36.9 42.9 36 44 36C45.1 36 46 36.9 46 38C46 39.1 45.1 40 44 40Z" fill="#00B894"/>
</svg> 