<?xml version="1.0" encoding="UTF-8"?>
<svg width="64" height="64" viewBox="0 0 64 64" fill="none" xmlns="http://www.w3.org/2000/svg">
    <circle cx="32" cy="32" r="28" stroke="#0984E3" stroke-width="2"/>
    <path d="M44 20H39.64C38.8 18.22 37.72 16.56 36.36 15.16C34.68 13.44 32.64 12 30 12C27.36 12 25.32 13.44 23.64 15.16C22.28 16.56 21.2 18.22 20.36 20H16C14.9 20 14 20.9 14 22V24C14 25.1 14.9 26 16 26H18.24L20.6 40.58C20.84 42.48 22.48 44 24.4 44H35.6C37.52 44 39.16 42.48 39.4 40.58L41.76 26H44C45.1 26 46 25.1 46 24V22C46 20.9 45.1 20 44 20ZM30 16C31.32 16 32.44 16.8 33.48 17.84C34.32 18.72 35.04 19.84 35.56 21H24.44C24.96 19.84 25.68 18.72 26.52 17.84C27.56 16.8 28.68 16 30 16ZM30 36C28.9 36 28 35.1 28 34V28C28 26.9 28.9 26 30 26C31.1 26 32 26.9 32 28V34C32 35.1 31.1 36 30 36ZM36 36C34.9 36 34 35.1 34 34V28C34 26.9 34.9 26 36 26C37.1 26 38 26.9 38 28V34C38 35.1 37.1 36 36 36ZM24 36C22.9 36 22 35.1 22 34V28C22 26.9 22.9 26 24 26C25.1 26 26 26.9 26 28V34C26 35.1 25.1 36 24 36Z" fill="#00B894"/>
</svg> 