<?xml version="1.0" encoding="UTF-8"?>
<svg width="64" height="64" viewBox="0 0 64 64" fill="none" xmlns="http://www.w3.org/2000/svg">
    <circle cx="32" cy="32" r="28" stroke="#0984E3" stroke-width="2"/>
    <path d="M32 20C25.3726 20 20 25.3726 20 32C20 38.6274 25.3726 44 32 44C38.6274 44 44 38.6274 44 32C44 25.3726 38.6274 20 32 20ZM32 40C27.5817 40 24 36.4183 24 32C24 27.5817 27.5817 24 32 24C36.4183 24 40 27.5817 40 32C40 36.4183 36.4183 40 32 40Z" fill="#00B894"/>
    <path d="M32 28C30.8954 28 30 28.8954 30 30V38C30 39.1046 30.8954 40 32 40C33.1046 40 34 39.1046 34 38V30C34 28.8954 33.1046 28 32 28Z" fill="#00B894"/>
    <circle cx="32" cy="26" r="2" fill="#00B894"/>
</svg> 