<?xml version="1.0" encoding="UTF-8"?>
<svg width="64" height="64" viewBox="0 0 64 64" fill="none" xmlns="http://www.w3.org/2000/svg">
    <circle cx="32" cy="32" r="28" stroke="#0984E3" stroke-width="2"/>
    <path d="M42 18H22C19.8 18 18 19.8 18 22V42C18 44.2 19.8 46 22 46H42C44.2 46 46 44.2 46 42V22C46 19.8 44.2 18 42 18ZM26 42H22V38H26V42ZM26 34H22V30H26V34ZM26 26H22V22H26V26ZM38 42H30V38H38V42ZM38 34H30V30H38V34ZM38 26H30V22H38V26ZM42 42H42.01V42.01H42V42ZM42 34H42.01V34.01H42V34ZM42 26H42.01V26.01H42V26Z" fill="#00B894"/>
</svg> 